<?xml version="1.0" encoding="UTF-8"?>
<svg width="148px" height="80px" viewBox="0 0 148 80" version="1.1" xmlns="http://www.w3.org/2000/svg" xmlns:xlink="http://www.w3.org/1999/xlink">
    <title>image_padding</title>
    <g id="页面-1" stroke="none" stroke-width="1" fill="none" fill-rule="evenodd">
        <g id="边距修改4" transform="translate(-107.000000, -373.000000)">
            <g id="编组-2" transform="translate(41.000000, 120.000000)">
                <g id="编组-7" transform="translate(14.000000, 183.999248)">
                    <g id="shili备份" transform="translate(0.000000, 39.000752)">
                        <g id="image_padding" transform="translate(52.000000, 30.000000)">
                            <rect id="矩形备份-3" fill="#FFFFFF" x="0" y="0" width="148" height="80"></rect>
                            <polygon id="矩形" fill="#FFFFFF" points="0 0 148 0 100 26 48 26"></polygon>
                            <polygon id="矩形备份-5" fill="#FFFFFF" transform="translate(74.000000, 67.000000) scale(1, -1) translate(-74.000000, -67.000000) " points="0 54 148 54 100 80 48 80"></polygon>
                            <polygon id="矩形" fill="#F6F9FF" points="100 26 148 0 148 80 100 54"></polygon>
                            <polygon id="矩形备份-6" fill="#F6F9FF" transform="translate(24.000000, 40.000000) scale(-1, 1) translate(-24.000000, -40.000000) " points="0 26 48 0 48 80 0 54"></polygon>
                            <rect id="矩形备份-4" fill="#D4DDE9" x="48" y="26" width="52" height="28"></rect>
                            <text id="Body" font-family="Montserrat-Regular, Montserrat" font-size="8" font-weight="normal" fill="#FFFFFF">
                                <tspan x="64.324" y="43">Body</tspan>
                            </text>
                        </g>
                    </g>
                </g>
            </g>
        </g>
    </g>
</svg>